<svg xmlns="http://www.w3.org/2000/svg" xmlns:xlink="http://www.w3.org/1999/xlink" width="80.284" height="54.6" viewBox="0 0 80.284 54.6">
  <defs>
    <clipPath id="clip-path">
      <path id="Path_11" data-name="Path 11" d="M.637,12.548H80.922V42.327H.637Zm0,0"/>
    </clipPath>
  </defs>
  <g id="shradha" transform="translate(-0.637 -12.548)">
    <g id="Group_5" data-name="Group 5" clip-path="url(#clip-path)">
      <path id="Path_10" data-name="Path 10" d="M42.647,41.033a11.343,11.343,0,0,0-3.5-2.649c9.063-7.607,13.281-17.244,12.507-20.8-1.268,8.311-9.249,17.876-12.513,20.8a5.975,5.975,0,0,0-2.947-.546c2.737-3.8,5.343-18.97,3.765-22.6,1.264.634,2.584,1.671,4.812,1.312-2.76-.815-3.8-1.651-6.126-3.138,2.348,8.117-.819,20.166-2.606,24.442a6.55,6.55,0,0,0-2.095.6c.067-5.62-6.315-21.237-10.3-23.747a18.777,18.777,0,0,0,6.22-1.112A35,35,0,0,1,33.1,22.141a35.461,35.461,0,0,0-2.727-9.575,31.342,31.342,0,0,1-9.118,1.2c7.113,6.224,11.456,19.37,12.481,24.79a9.8,9.8,0,0,0-1.358.832c-2.173-4.677-15.932-15.5-20.781-15.636a16.7,16.7,0,0,0,4.455-3.956,51.766,51.766,0,0,1,8.566,7.082c-1.9-2.672-6.077-6.384-8.644-8.4a31.453,31.453,0,0,1-7.249,5.677c9.511,1.781,20.2,11.31,23.56,15.3-.267.2-.535.41-.8.641-8.961-2.739-18.107-3.445-28.887.427a8.827,8.827,0,0,0,1.619-5.043,69.943,69.943,0,0,1,17.809-1.539,42.92,42.92,0,0,0-18.576.427A25.105,25.105,0,0,1,.636,42.315c11.836-4.157,21.937-4.193,31.274-.6,3.862-3.02,7.5-3.049,10.226.085,10.963-.7,29.427-1.157,40.391-.256C72.979,40.392,54.466,40.363,42.647,41.033Zm0,0" fill="#d44a1e" fill-rule="evenodd"/>
    </g>
    <g id="Group_8" data-name="Group 8">
      <g id="Group_7" data-name="Group 7" transform="translate(0.457 58.279)">
        <g id="Group_6" data-name="Group 6">
          <path id="Path_12" data-name="Path 12" d="M5.264.18c2.144,0,4.722-.92,4.722-3.93,0-2.632-1.946-3.227-3.731-3.624-1.406-.306-2.686-.45-2.686-1.622,0-.829.631-1.244,1.586-1.244a1.622,1.622,0,0,1,1.8,1.37.35.35,0,0,0,.378.343H9.283A.311.311,0,0,0,9.626-8.9c-.2-2.506-2.362-3.534-4.417-3.534-2.145,0-4.344,1.154-4.344,3.822,0,2.235,1.551,2.884,3.011,3.281,1.677.451,3.407.523,3.407,1.983,0,1.01-.847,1.334-1.749,1.334A2,2,0,0,1,3.317-3.7a.335.335,0,0,0-.361-.342H.847a.323.323,0,0,0-.361.36C.631-.937,2.9.18,5.264.18Zm0,0" fill="#1c5905"/>
        </g>
      </g>
    </g>
    <g id="Group_11" data-name="Group 11">
      <g id="Group_10" data-name="Group 10" transform="translate(11.001 58.279)">
        <g id="Group_9" data-name="Group 9">
          <path id="Path_13" data-name="Path 13" d="M8.635-7.553H3.7V-11.9a.324.324,0,0,0-.361-.361H1.352a.324.324,0,0,0-.361.361V.361C2.56,0,3.7-1.334,3.7-3.588V-6.841A3.235,3.235,0,0,0,6.94-5.1h1.7V-.361A.323.323,0,0,0,8.995,0h1.983a.323.323,0,0,0,.36-.361V-12.619c-1.568.361-2.7,1.7-2.7,3.948Zm0,0" fill="#1c5905"/>
        </g>
      </g>
    </g>
    <g id="Group_14" data-name="Group 14">
      <g id="Group_13" data-name="Group 13" transform="translate(23.348 58.279)">
        <g id="Group_12" data-name="Group 12">
          <path id="Path_14" data-name="Path 14" d="M8.923-2.235A6.047,6.047,0,0,0,5.453-4.75c2.885-.117,4.011-1.514,4.011-3.668,0-2.361-1.226-3.84-4.416-3.84H3.407v.009a.27.27,0,0,0-.09-.009H1.334a.324.324,0,0,0-.361.361V.361c1.568-.18,2.7-1.515,2.7-3.768V-4.741H3.8L6.976-.234A.512.512,0,0,0,7.409,0h2.56c.2,0,.307-.09.307-.234a.336.336,0,0,0-.072-.2ZM6.759-8.328c0,1.623-1.424,1.64-1.983,1.64h-1.1V-9.915h1.1C5.353-9.915,6.759-9.932,6.759-8.328Zm0,0" fill="#1c5905"/>
        </g>
      </g>
    </g>
    <g id="Group_17" data-name="Group 17">
      <g id="Group_16" data-name="Group 16" transform="translate(33.748 58.279)">
        <g id="Group_15" data-name="Group 15">
          <path id="Path_15" data-name="Path 15" d="M7.049-11.97a.428.428,0,0,0-.415-.288H4.957a.428.428,0,0,0-.415.288L-.108.361C1.947,0,3.506-1.2,4.371-3.993A2.847,2.847,0,0,0,7.193-2.47H7.85L8.563-.288a.368.368,0,0,0,.4.288H11.1c.2,0,.325-.108.325-.271a.562.562,0,0,0-.035-.144ZM5.8-8.689l1.316,4H4.588Zm0,0" fill="#1c5905"/>
        </g>
      </g>
    </g>
    <g id="Group_20" data-name="Group 20">
      <g id="Group_19" data-name="Group 19" transform="translate(45.247 58.279)">
        <g id="Group_18" data-name="Group 18">
          <path id="Path_16" data-name="Path 16" d="M4.254,0c4.56,0,6.634-2.668,6.634-6.129S8.8-12.258,4.254-12.258H1.334a.324.324,0,0,0-.361.361V-.361A.324.324,0,0,0,1.334,0ZM3.678-9.807h.829A3.344,3.344,0,0,1,8.184-6.129,3.352,3.352,0,0,1,4.506-2.451H3.678Zm0,0" fill="#1c5905"/>
        </g>
      </g>
    </g>
    <g id="Group_23" data-name="Group 23">
      <g id="Group_22" data-name="Group 22" transform="translate(56.62 58.279)">
        <g id="Group_21" data-name="Group 21">
          <path id="Path_17" data-name="Path 17" d="M8.635-7.553H3.7V-11.9a.324.324,0,0,0-.361-.361H1.352a.324.324,0,0,0-.361.361V.361C2.56,0,3.7-1.334,3.7-3.588V-6.841A3.235,3.235,0,0,0,6.94-5.1h1.7V-.361A.323.323,0,0,0,8.995,0h1.983a.323.323,0,0,0,.36-.361V-12.619c-1.568.361-2.7,1.7-2.7,3.948Zm0,0" fill="#1c5905"/>
        </g>
      </g>
    </g>
    <g id="Group_26" data-name="Group 26">
      <g id="Group_25" data-name="Group 25" transform="translate(68.967 58.279)">
        <g id="Group_24" data-name="Group 24">
          <path id="Path_18" data-name="Path 18" d="M7.049-11.97a.428.428,0,0,0-.415-.288H4.957a.428.428,0,0,0-.415.288L-.108.361C1.947,0,3.506-1.2,4.371-3.993A2.847,2.847,0,0,0,7.193-2.47H7.85L8.563-.288a.368.368,0,0,0,.4.288H11.1c.2,0,.325-.108.325-.271a.562.562,0,0,0-.035-.144ZM5.8-8.689l1.316,4H4.588Zm0,0" fill="#1c5905"/>
        </g>
      </g>
    </g>
    <g id="Group_29" data-name="Group 29">
      <g id="Group_28" data-name="Group 28" transform="translate(15.532 67.091)">
        <g id="Group_27" data-name="Group 27">
          <path id="Path_19" data-name="Path 19" d="M.56,0H1.73a1.517,1.517,0,0,0,.529-.081A.934.934,0,0,0,2.6-.293a.781.781,0,0,0,.189-.3.957.957,0,0,0,.061-.334.716.716,0,0,0-.115-.425.811.811,0,0,0-.273-.243A1.082,1.082,0,0,0,2.138-1.7c-.113-.018-.2-.029-.27-.034v-.017a.747.747,0,0,0,.307-.064.927.927,0,0,0,.253-.162A.77.77,0,0,0,2.6-2.212.626.626,0,0,0,2.67-2.5a.683.683,0,0,0-.057-.266.776.776,0,0,0-.172-.246.819.819,0,0,0-.293-.185,1.108,1.108,0,0,0-.421-.074H.56ZM.985-.206V-1.632H1.5a1.179,1.179,0,0,1,.4.061.8.8,0,0,1,.276.162.633.633,0,0,1,.165.239.769.769,0,0,1,.054.283A.668.668,0,0,1,2.33-.6a.689.689,0,0,1-.155.216.633.633,0,0,1-.233.131.873.873,0,0,1-.28.044Zm0-1.632V-3.062h.57a.811.811,0,0,1,.31.054.589.589,0,0,1,.209.135.5.5,0,0,1,.118.189.614.614,0,0,1,.04.216.608.608,0,0,1-.054.253.594.594,0,0,1-.152.2.694.694,0,0,1-.219.131.708.708,0,0,1-.263.047Zm0,0" fill="#143d05"/>
        </g>
      </g>
    </g>
    <g id="Group_32" data-name="Group 32">
      <g id="Group_31" data-name="Group 31" transform="translate(20.557 67.091)">
        <g id="Group_30" data-name="Group 30">
          <path id="Path_20" data-name="Path 20" d="M.233-1.632a1.724,1.724,0,0,0,.1.556,1.7,1.7,0,0,0,.314.55,1.755,1.755,0,0,0,.546.418,1.782,1.782,0,0,0,.8.165A1.926,1.926,0,0,0,2.552-.02a1.784,1.784,0,0,0,.459-.209,1.667,1.667,0,0,0,.354-.3A1.76,1.76,0,0,0,3.608-.89a1.765,1.765,0,0,0,.145-.378A1.432,1.432,0,0,0,3.8-1.632a1.649,1.649,0,0,0-.108-.56,1.681,1.681,0,0,0-.334-.546A1.758,1.758,0,0,0,2.8-3.156a1.838,1.838,0,0,0-.806-.165,1.806,1.806,0,0,0-.8.162,1.663,1.663,0,0,0-.546.415,1.668,1.668,0,0,0-.314.55A1.75,1.75,0,0,0,.233-1.632Zm.459,0a1.758,1.758,0,0,1,.1-.6A1.443,1.443,0,0,1,1.065-2.7a1.28,1.28,0,0,1,.411-.307A1.214,1.214,0,0,1,2-3.119a1.233,1.233,0,0,1,.519.111,1.381,1.381,0,0,1,.432.307,1.415,1.415,0,0,1,.29.469,1.628,1.628,0,0,1,.108.6,1.616,1.616,0,0,1-.108.6,1.448,1.448,0,0,1-.29.472,1.368,1.368,0,0,1-.432.307A1.257,1.257,0,0,1,2-.148a1.237,1.237,0,0,1-.519-.108,1.268,1.268,0,0,1-.411-.307,1.478,1.478,0,0,1-.276-.472A1.745,1.745,0,0,1,.691-1.632Zm0,0" fill="#143d05"/>
        </g>
      </g>
    </g>
    <g id="Group_35" data-name="Group 35">
      <g id="Group_34" data-name="Group 34" transform="translate(26.533 67.091)">
        <g id="Group_33" data-name="Group 33">
          <path id="Path_21" data-name="Path 21" d="M.233-1.632a1.724,1.724,0,0,0,.1.556,1.7,1.7,0,0,0,.314.55,1.755,1.755,0,0,0,.546.418,1.782,1.782,0,0,0,.8.165A1.926,1.926,0,0,0,2.552-.02a1.784,1.784,0,0,0,.459-.209,1.667,1.667,0,0,0,.354-.3A1.76,1.76,0,0,0,3.608-.89a1.765,1.765,0,0,0,.145-.378A1.432,1.432,0,0,0,3.8-1.632a1.649,1.649,0,0,0-.108-.56,1.681,1.681,0,0,0-.334-.546A1.758,1.758,0,0,0,2.8-3.156a1.838,1.838,0,0,0-.806-.165,1.806,1.806,0,0,0-.8.162,1.663,1.663,0,0,0-.546.415,1.668,1.668,0,0,0-.314.55A1.75,1.75,0,0,0,.233-1.632Zm.459,0a1.758,1.758,0,0,1,.1-.6A1.443,1.443,0,0,1,1.065-2.7a1.28,1.28,0,0,1,.411-.307A1.214,1.214,0,0,1,2-3.119a1.233,1.233,0,0,1,.519.111,1.381,1.381,0,0,1,.432.307,1.415,1.415,0,0,1,.29.469,1.628,1.628,0,0,1,.108.6,1.616,1.616,0,0,1-.108.6,1.448,1.448,0,0,1-.29.472,1.368,1.368,0,0,1-.432.307A1.257,1.257,0,0,1,2-.148a1.237,1.237,0,0,1-.519-.108,1.268,1.268,0,0,1-.411-.307,1.478,1.478,0,0,1-.276-.472A1.745,1.745,0,0,1,.691-1.632Zm0,0" fill="#143d05"/>
        </g>
      </g>
    </g>
    <g id="Group_38" data-name="Group 38">
      <g id="Group_37" data-name="Group 37" transform="translate(32.51 67.091)">
        <g id="Group_36" data-name="Group 36">
          <path id="Path_22" data-name="Path 22" d="M.56,0H.985V-1.146l.526-.566L2.755,0h.482L1.784-2,2.967-3.267H2.734L.985-1.43V-3.267H.56Zm0,0" fill="#143d05"/>
        </g>
      </g>
    </g>
    <g id="Group_41" data-name="Group 41">
      <g id="Group_40" data-name="Group 40" transform="translate(41.402 67.091)">
        <g id="Group_39" data-name="Group 39">
          <path id="Path_23" data-name="Path 23" d="M.172-.826a.786.786,0,0,0,.1.364.892.892,0,0,0,.263.276,1.283,1.283,0,0,0,.388.179A1.817,1.817,0,0,0,1.42.057a1.728,1.728,0,0,0,.486-.064A1.106,1.106,0,0,0,2.276-.2a.846.846,0,0,0,.239-.293A.88.88,0,0,0,2.6-.873a.739.739,0,0,0-.145-.472,1.2,1.2,0,0,0-.364-.307,2.6,2.6,0,0,0-.469-.209c-.169-.056-.326-.115-.472-.175a1.455,1.455,0,0,1-.361-.216.4.4,0,0,1-.145-.324.469.469,0,0,1,.047-.209.492.492,0,0,1,.145-.169.783.783,0,0,1,.236-.118A1.03,1.03,0,0,1,1.4-3.119a.962.962,0,0,1,.516.131.525.525,0,0,1,.25.4h.317A.711.711,0,0,0,2.35-2.9.889.889,0,0,0,2.1-3.129a1.177,1.177,0,0,0-.337-.142,1.525,1.525,0,0,0-.394-.051,1.461,1.461,0,0,0-.411.057A1.07,1.07,0,0,0,.62-3.1a.776.776,0,0,0-.233.27A.8.8,0,0,0,.3-2.458a.671.671,0,0,0,.138.442,1.148,1.148,0,0,0,.354.28,3.005,3.005,0,0,0,.459.192,3.562,3.562,0,0,1,.462.179,1.2,1.2,0,0,1,.351.246.532.532,0,0,1,.142.388.489.489,0,0,1-.223.445,1.1,1.1,0,0,1-.59.138A1.191,1.191,0,0,1,.924-.226.737.737,0,0,1,.651-.411.612.612,0,0,1,.526-.631a1.126,1.126,0,0,1-.037-.2Zm0,0" fill="#143d05"/>
        </g>
      </g>
    </g>
    <g id="Group_44" data-name="Group 44">
      <g id="Group_43" data-name="Group 43" transform="translate(46.259 67.091)">
        <g id="Group_42" data-name="Group 42">
          <path id="Path_24" data-name="Path 24" d="M1.77,0V-3.011H3.018v-.256H.094v.256H1.345V0Zm0,0" fill="#143d05"/>
        </g>
      </g>
    </g>
    <g id="Group_47" data-name="Group 47">
      <g id="Group_46" data-name="Group 46" transform="translate(51.312 67.091)">
        <g id="Group_45" data-name="Group 45">
          <path id="Path_25" data-name="Path 25" d="M.233-1.632a1.724,1.724,0,0,0,.1.556,1.7,1.7,0,0,0,.314.55,1.755,1.755,0,0,0,.546.418,1.782,1.782,0,0,0,.8.165A1.926,1.926,0,0,0,2.552-.02a1.784,1.784,0,0,0,.459-.209,1.667,1.667,0,0,0,.354-.3A1.76,1.76,0,0,0,3.608-.89a1.765,1.765,0,0,0,.145-.378A1.432,1.432,0,0,0,3.8-1.632a1.649,1.649,0,0,0-.108-.56,1.681,1.681,0,0,0-.334-.546A1.758,1.758,0,0,0,2.8-3.156a1.838,1.838,0,0,0-.806-.165,1.806,1.806,0,0,0-.8.162,1.663,1.663,0,0,0-.546.415,1.668,1.668,0,0,0-.314.55A1.75,1.75,0,0,0,.233-1.632Zm.459,0a1.758,1.758,0,0,1,.1-.6A1.443,1.443,0,0,1,1.065-2.7a1.28,1.28,0,0,1,.411-.307A1.214,1.214,0,0,1,2-3.119a1.233,1.233,0,0,1,.519.111,1.381,1.381,0,0,1,.432.307,1.415,1.415,0,0,1,.29.469,1.628,1.628,0,0,1,.108.6,1.616,1.616,0,0,1-.108.6,1.448,1.448,0,0,1-.29.472,1.368,1.368,0,0,1-.432.307A1.257,1.257,0,0,1,2-.148a1.237,1.237,0,0,1-.519-.108,1.268,1.268,0,0,1-.411-.307,1.478,1.478,0,0,1-.276-.472A1.745,1.745,0,0,1,.691-1.632Zm0,0" fill="#143d05"/>
        </g>
      </g>
    </g>
    <g id="Group_50" data-name="Group 50">
      <g id="Group_49" data-name="Group 49" transform="translate(57.288 67.091)">
        <g id="Group_48" data-name="Group 48">
          <path id="Path_26" data-name="Path 26" d="M.56-3.267V0H.985V-1.443H1.19a.845.845,0,0,1,.216.024.408.408,0,0,1,.155.081.6.6,0,0,1,.131.145c.04.059.089.131.145.219l.371.546a2.125,2.125,0,0,0,.135.2.976.976,0,0,0,.148.152.705.705,0,0,0,.179.1.653.653,0,0,0,.243.04,1.1,1.1,0,0,0,.165-.01A.381.381,0,0,0,3.21,0V-.172l-.047.007a.277.277,0,0,1-.044,0,.5.5,0,0,1-.175-.027A.557.557,0,0,1,2.8-.273.816.816,0,0,1,2.677-.4c-.04-.051-.083-.11-.125-.175-.131-.189-.232-.339-.3-.452s-.13-.2-.172-.263a.885.885,0,0,0-.1-.135A.408.408,0,0,0,1.881-1.5l-.047-.024v-.017a.936.936,0,0,0,.384-.1.809.809,0,0,0,.263-.209.8.8,0,0,0,.148-.273.961.961,0,0,0,.047-.29.858.858,0,0,0-.051-.273.756.756,0,0,0-.165-.276.882.882,0,0,0-.324-.216,1.338,1.338,0,0,0-.519-.088Zm.425.206h.472a.9.9,0,0,1,.317.054.72.72,0,0,1,.246.142.613.613,0,0,1,.158.216.7.7,0,0,1,.054.276.683.683,0,0,1-.051.253.724.724,0,0,1-.148.233.784.784,0,0,1-.239.172.784.784,0,0,1-.327.064H.985Zm0,0" fill="#143d05"/>
        </g>
      </g>
    </g>
    <g id="Group_53" data-name="Group 53">
      <g id="Group_52" data-name="Group 52" transform="translate(62.579 67.091)">
        <g id="Group_51" data-name="Group 51">
          <path id="Path_27" data-name="Path 27" d="M.56-3.267V0H2.67V-.256H.985V-1.625H2.431v-.212H.985V-3.011H2.67v-.256Zm0,0" fill="#143d05"/>
        </g>
      </g>
    </g>
  </g>
</svg>
