<svg xmlns="http://www.w3.org/2000/svg" xmlns:xlink="http://www.w3.org/1999/xlink" width="372.047" height="213.362" viewBox="0 0 372.047 213.362">
  <defs>
    <clipPath id="clip-path">
      <path id="Path_465" data-name="Path 465" d="M2.953,70.832H375v138H2.953Zm0,0"/>
    </clipPath>
  </defs>
  <g id="shradha" transform="translate(-2.953 -70.832)">
    <g id="Group_425" data-name="Group 425" clip-path="url(#clip-path)">
      <path id="Path_464" data-name="Path 464" d="M197.629,202.832c-5.52-5.848-10.9-9.887-16.207-12.273,42-35.254,61.547-79.911,57.961-96.379-5.875,38.515-42.86,82.84-57.985,96.367a27.677,27.677,0,0,0-13.656-2.531C180.426,170.4,192.5,100.1,185.188,83.277c5.859,2.938,11.976,7.738,22.3,6.082-12.789-3.777-17.6-7.652-28.39-14.543,10.879,37.614-3.8,93.45-12.078,113.266a30.441,30.441,0,0,0-9.707,2.781c.312-26.043-29.266-98.414-47.743-110.043,10.926.129,18.953-2.113,28.825-5.152,6.781,11.754,11.386,25.75,15.007,39.617-1.316-15.156-7.109-30.273-12.636-44.371-14.61,4.293-27.645,5.48-42.254,5.547,32.961,28.844,53.086,89.762,57.836,114.875a45.869,45.869,0,0,0-6.293,3.855c-10.071-21.668-73.832-71.828-96.3-72.453,9.477-5.453,13.68-10.683,20.645-18.332,11.789,6.672,29.559,22.719,39.7,32.821-8.805-12.383-28.16-29.586-40.059-38.915-10.414,11.141-21.039,18.8-33.594,26.3,44.074,8.258,93.59,52.414,109.18,70.891-1.238.914-2.48,1.9-3.723,2.969-41.527-12.7-83.91-15.965-133.867,1.98a40.919,40.919,0,0,0,7.5-23.375c23.426-4.824,50.672-8.652,82.531-7.129-23.64-4.953-56.644-5.746-86.086,1.981-2.465,14.793-7.4,26.281-13.031,36.843C57.8,189.512,104.609,189.348,147.875,206c17.9-14,34.75-14.129,47.387.394,50.8-3.257,136.367-5.363,187.176-1.187C338.191,199.863,252.4,199.73,197.629,202.832Zm0,0" fill="#ed7565" fill-rule="evenodd"/>
    </g>
    <g id="Group_447" data-name="Group 447">
      <g id="Group_428" data-name="Group 428">
        <g id="Group_427" data-name="Group 427" transform="translate(2.093 282.523)">
          <g id="Group_426" data-name="Group 426">
            <path id="Path_466" data-name="Path 466" d="M24.391.836c9.941,0,21.887-4.262,21.887-18.211,0-12.2-9.02-14.953-17.289-16.789-6.516-1.422-12.449-2.09-12.449-7.52,0-3.844,2.926-5.766,7.351-5.766,4.176,0,7.434,1.672,8.356,6.352A1.617,1.617,0,0,0,34-39.512h9.02a1.441,1.441,0,0,0,1.59-1.754c-.922-11.613-10.945-16.375-20.469-16.375-9.941,0-20.133,5.348-20.133,17.711,0,10.359,7.187,13.367,13.953,15.2,7.77,2.09,15.789,2.422,15.789,9.188,0,4.68-3.93,6.184-8.105,6.184-5.43,0-9.523-2.59-10.273-7.77A1.556,1.556,0,0,0,13.7-18.711H3.926a1.5,1.5,0,0,0-1.672,1.668C2.922-4.344,13.449.836,24.391.836Zm0,0" fill="#187498"/>
          </g>
        </g>
      </g>
      <g id="Group_431" data-name="Group 431">
        <g id="Group_430" data-name="Group 430" transform="translate(50.958 282.523)">
          <g id="Group_429" data-name="Group 429">
            <path id="Path_467" data-name="Path 467" d="M40.012-35H17.125V-55.133A1.5,1.5,0,0,0,15.453-56.8H6.266a1.5,1.5,0,0,0-1.672,1.672v56.8C11.863,0,17.125-6.18,17.125-16.625V-31.7c2,4.8,7.184,8.063,15.035,8.063h7.852V-1.672A1.5,1.5,0,0,0,41.684,0h9.188a1.5,1.5,0,0,0,1.672-1.672v-56.8C45.277-56.8,40.012-50.621,40.012-40.18Zm0,0" fill="#187498"/>
          </g>
        </g>
      </g>
      <g id="Group_434" data-name="Group 434">
        <g id="Group_433" data-name="Group 433" transform="translate(108.177 282.523)">
          <g id="Group_432" data-name="Group 432">
            <path id="Path_468" data-name="Path 468" d="M41.352-10.359c-4.723-6.6-10.234-10.191-16.082-11.652,13.367-.543,18.586-7.016,18.586-17,0-10.941-5.68-17.793-20.465-17.793h-7.6v.043a1.251,1.251,0,0,0-.418-.043H6.18a1.5,1.5,0,0,0-1.668,1.672v56.8c7.266-.836,12.531-7.02,12.531-17.461v-6.18h.582l14.7,20.883a2.366,2.366,0,0,0,2,1.086H46.2c.918,0,1.418-.418,1.418-1.086A1.549,1.549,0,0,0,47.281-2ZM31.324-38.594c0,7.52-6.6,7.6-9.187,7.6H17.043V-45.945h5.094C24.809-45.945,31.324-46.027,31.324-38.594Zm0,0" fill="#187498"/>
          </g>
        </g>
      </g>
      <g id="Group_437" data-name="Group 437">
        <g id="Group_436" data-name="Group 436" transform="translate(156.375 282.523)">
          <g id="Group_435" data-name="Group 435">
            <path id="Path_469" data-name="Path 469" d="M32.664-55.469A1.989,1.989,0,0,0,30.742-56.8h-7.77a1.989,1.989,0,0,0-1.922,1.336L-.5,1.672C9.023,0,16.246-5.555,20.258-18.5c1.879,4.219,6.3,7.059,13.074,7.059h3.047l3.3,10.109A1.7,1.7,0,0,0,41.516,0h9.941c.918,0,1.5-.5,1.5-1.254a2.48,2.48,0,0,0-.168-.668ZM26.9-40.266,33-21.719H21.258Zm0,0" fill="#187498"/>
          </g>
        </g>
      </g>
      <g id="Group_440" data-name="Group 440">
        <g id="Group_439" data-name="Group 439" transform="translate(209.667 282.523)">
          <g id="Group_438" data-name="Group 438">
            <path id="Path_470" data-name="Path 470" d="M19.715,0C40.848,0,50.457-12.363,50.457-28.4S40.766-56.8,19.715-56.8H6.18a1.5,1.5,0,0,0-1.668,1.672V-1.672A1.5,1.5,0,0,0,6.18,0ZM17.043-45.441h3.84c12.2,0,17.043,7.6,17.043,17.039S33-11.359,20.883-11.359h-3.84Zm0,0" fill="#187498"/>
          </g>
        </g>
      </g>
      <g id="Group_443" data-name="Group 443">
        <g id="Group_442" data-name="Group 442" transform="translate(262.376 282.523)">
          <g id="Group_441" data-name="Group 441">
            <path id="Path_471" data-name="Path 471" d="M40.012-35H17.125V-55.133A1.5,1.5,0,0,0,15.453-56.8H6.266a1.5,1.5,0,0,0-1.672,1.672v56.8C11.863,0,17.125-6.18,17.125-16.625V-31.7c2,4.8,7.184,8.063,15.035,8.063h7.852V-1.672A1.5,1.5,0,0,0,41.684,0h9.188a1.5,1.5,0,0,0,1.672-1.672v-56.8C45.277-56.8,40.012-50.621,40.012-40.18Zm0,0" fill="#187498"/>
          </g>
        </g>
      </g>
      <g id="Group_446" data-name="Group 446">
        <g id="Group_445" data-name="Group 445" transform="translate(319.594 282.523)">
          <g id="Group_444" data-name="Group 444">
            <path id="Path_472" data-name="Path 472" d="M32.664-55.469A1.989,1.989,0,0,0,30.742-56.8h-7.77a1.989,1.989,0,0,0-1.922,1.336L-.5,1.672C9.023,0,16.246-5.555,20.258-18.5c1.879,4.219,6.3,7.059,13.074,7.059h3.047l3.3,10.109A1.7,1.7,0,0,0,41.516,0h9.941c.918,0,1.5-.5,1.5-1.254a2.48,2.48,0,0,0-.168-.668ZM26.9-40.266,33-21.719H21.258Zm0,0" fill="#187498"/>
          </g>
        </g>
      </g>
    </g>
  </g>
</svg>
